<svg width="15" height="15" viewBox="0 0 15 15" fill="none" xmlns="http://www.w3.org/2000/svg">
<g clip-path="url(#clip0_1_1456)">
<path fill-rule="evenodd" clip-rule="evenodd" d="M1.33171 0.0841894L1.25979 0.170613V0.982238V1.79383H0.733825C0.173144 1.79383 0.0870994 1.81394 0.0325488 1.95784C0.00911139 2.01971 2.93928e-05 3.81672 2.93928e-05 8.40054C2.93928e-05 15.1852 -0.0054491 14.9146 0.133183 14.9786C0.195175 15.0071 14.8048 15.0071 14.8668 14.9786C15.0054 14.9146 15 15.1852 15 8.40054C15 3.81672 14.9909 2.01971 14.9675 1.95784C14.9129 1.81394 14.8269 1.79383 14.2662 1.79383H13.7402V0.982238V0.170613L13.6683 0.0841894C13.5778 -0.024633 13.5042 -0.02576 12.7116 0.0693979C11.6955 0.191427 10.9154 0.361281 10.0635 0.64598C9.31868 0.894898 8.79506 1.11751 7.88921 1.57034L7.50205 1.76389L6.95171 1.49159C5.26091 0.655066 3.89957 0.247564 2.14054 0.051437C1.47421 -0.0228721 1.41887 -0.0206182 1.33171 0.0841894ZM2.78322 0.738955C4.06106 0.934342 5.36128 1.35632 6.66504 1.99869L7.22168 2.27296L7.22909 8.26358L7.2365 14.2542L6.77499 14.026C5.35325 13.3227 3.95246 12.8974 2.4435 12.7109C2.13157 12.6724 1.84968 12.6408 1.8171 12.6408C1.75783 12.6408 1.75783 12.64 1.75783 6.63103V0.621258L2.04348 0.645382C2.20057 0.658659 2.53347 0.700743 2.78322 0.738955ZM13.2422 6.63096V12.6303L12.854 12.6725C11.2247 12.8499 9.69371 13.2974 8.22501 14.0255L7.76349 14.2542L7.77091 8.26358L7.77832 2.27296L8.33496 1.99869C9.64739 1.35206 10.9478 0.930855 12.2172 0.741244C12.8435 0.647706 12.8745 0.643938 13.0737 0.637281L13.2422 0.631647V6.63096ZM1.25979 7.6951C1.25979 11.242 1.26972 13.0199 1.28976 13.065C1.3408 13.1796 1.41342 13.2012 1.93789 13.2573C2.98417 13.3694 3.77814 13.5257 4.59962 13.7814C4.99724 13.9051 5.77709 14.1996 6.04981 14.329L6.19629 14.3984L3.34718 14.4001L0.498074 14.4017V8.39712V2.39253H0.878932H1.25979V7.6951ZM14.5019 8.39712V14.4017H11.6552C10.0896 14.4017 8.81408 14.3955 8.82079 14.388C8.85155 14.3533 9.72565 14.0081 10.1074 13.8798C11.0917 13.549 11.8974 13.3781 13.0501 13.2554C13.5938 13.1976 13.6597 13.1786 13.7102 13.065C13.7303 13.0199 13.7402 11.242 13.7402 7.6951V2.39253H14.1211H14.5019V8.39712Z" fill="#101923"/>
</g>
<defs>
<clipPath id="clip0_1_1456">
<rect width="15" height="15" fill="white"/>
</clipPath>
</defs>
</svg>
